<?xml version="1.0" encoding="UTF-8" standalone="no"?>
<svg
   viewBox="0 0 512 512"
   style="height: 512px; width: 512px;"
   version="1.1"
   id="svg8"
   sodipodi:docname="mind.svg"
   inkscape:version="1.1.1 (3bf5ae0d25, 2021-09-20)"
   xmlns:inkscape="http://www.inkscape.org/namespaces/inkscape"
   xmlns:sodipodi="http://sodipodi.sourceforge.net/DTD/sodipodi-0.dtd"
   xmlns="http://www.w3.org/2000/svg"
   xmlns:svg="http://www.w3.org/2000/svg">
  <defs
     id="defs12" />
  <sodipodi:namedview
     id="namedview10"
     pagecolor="#ffffff"
     bordercolor="#999999"
     borderopacity="1"
     inkscape:pageshadow="0"
     inkscape:pageopacity="0"
     inkscape:pagecheckerboard="0"
     showgrid="false"
     inkscape:zoom="1.6757812"
     inkscape:cx="256"
     inkscape:cy="185.88345"
     inkscape:window-width="1920"
     inkscape:window-height="1017"
     inkscape:window-x="-8"
     inkscape:window-y="-8"
     inkscape:window-maximized="1"
     inkscape:current-layer="svg8" />
  <circle
     cx="256"
     cy="256"
     r="256"
     fill="#000000"
     fill-opacity="1"
     id="circle2" />
  <g
     class=""
     transform="translate(0,0)"
     style=""
     id="g6">
    <path
       d="M 65.398159,12.778555 128,128 -10.344988,102.08159 -24.517483,122.64685 96,208 -53.608392,244.01632 -55.100233,273.04895 128,304 124.4,320 C 111.8,332.1 102.5,346.5 95.94,362.5 81.51,397.7 79.3,448.2 79.04,494 h 18.1 c 0.34,-44.1 2.78,-93.8 15.46,-124.7 8.9,-21.9 22.4,-39.6 44.6,-52.1 -4.1,-22 -6.2,-43.5 -6.2,-61.2 v -14.6 l 13,6.6 c 9.6,4.7 16.5,6.2 23.1,5.7 -5.2,-14 -8.1,-29.6 -8.1,-45.7 0,-29.1 9.1,-55.2 23.3,-73.7 14.2,-18.5 33.1,-29.3 53.7,-29.3 20.6,0 39.5,10.8 53.7,29.3 14.2,18.5 23.3,44.6 23.3,73.7 0,16.1 -2.9,31.7 -8.1,45.7 6.6,0.5 13.6,-1 23.1,-5.7 l 13,-6.6 V 256 c 0,17.7 -2.1,39.2 -6.2,61.2 22.2,12.5 35.7,30.2 44.6,52.1 12.7,30.9 15.1,80.6 15.5,124.7 H 433 c -0.3,-45.8 -2.5,-96.3 -16.9,-131.5 -6.6,-16 -15.9,-30.5 -28.6,-42.6 L 384,304 l 183.84615,-32.44289 0,-26.79487 L 416,208 537.2634,122.64685 525.32867,102.82751 384,128 448.8296,14.270396 423.71026,-3.6317016 304,80 278.68671,-53.608392 H 225.85408 L 208,80 92.765268,-5.8694639 Z M 208,215 v 18 h 32 v -18 z m 64,0 v 18 h 32 v -18 z m -33.6,36.1 c -12.7,6.7 -23.7,13.5 -35.6,17.4 -10,3.4 -21.1,4.1 -33.3,0.8 0.5,8 1.3,16.7 2.4,25.7 27.2,-0.4 51.7,-3.3 77.7,-29.4 l 1.7,-1.6 z m 35.2,0 -12.9,12.9 1.7,1.6 c 26,26.1 50.5,29 77.7,29.4 1.1,-9 1.9,-17.7 2.4,-25.7 -12.2,3.3 -23.3,2.6 -33.3,-0.8 -11.9,-3.9 -22.9,-10.7 -35.6,-17.4 z M 256,284.3 c -27,23.7 -55.2,27.8 -81.3,28.5 1.7,9 3.6,18 6,26.9 2.2,8.3 4.8,16.3 7.6,23.9 5.6,-10.5 12.7,-20.6 19.7,-27.6 0,21 -6.9,35 -11.6,46.8 3.8,7.6 7.8,14.4 12.1,20 L 233,378.3 V 400 c 0,14.5 2.8,19.1 7.4,23.6 3.4,3.5 9.1,6.9 15.6,12.3 6.5,-5.4 12.2,-8.8 15.6,-12.3 4.6,-4.5 7.4,-9.1 7.4,-23.6 v -21.7 l 24.5,24.5 c 4.3,-5.6 8.3,-12.4 12.1,-20 C 310.9,371 304,357 304,336 c 7,7 14.1,17.1 19.7,27.6 2.8,-7.6 5.4,-15.6 7.6,-23.9 2.4,-8.9 4.3,-17.9 6,-26.9 C 311.2,312.1 283,308 256,284.3 Z"
       fill="#b80800"
       fill-opacity="1"
       transform="matrix(0.8,0,0,0.8,51.2,51.2)"
       id="path4"
       sodipodi:nodetypes="ccccccccccccccscccssssscccscccccccccccccccccccccccccccccccccccccccccccccccccccccscccscccccccc" />
  </g>
</svg>
