<?xml version="1.0" encoding="UTF-8" standalone="no"?>
<svg
   viewBox="0 0 512 512"
   version="1.1"
   id="svg4"
   sodipodi:docname="circle-info-checked.svg"
   inkscape:version="1.1.1 (3bf5ae0d25, 2021-09-20)"
   xmlns:inkscape="http://www.inkscape.org/namespaces/inkscape"
   xmlns:sodipodi="http://sodipodi.sourceforge.net/DTD/sodipodi-0.dtd"
   xmlns="http://www.w3.org/2000/svg"
   xmlns:svg="http://www.w3.org/2000/svg">
  <defs
     id="defs8" />
  <sodipodi:namedview
     id="namedview6"
     pagecolor="#ffffff"
     bordercolor="#999999"
     borderopacity="1"
     inkscape:pageshadow="0"
     inkscape:pageopacity="0"
     inkscape:pagecheckerboard="0"
     showgrid="false"
     inkscape:zoom="1.6757812"
     inkscape:cx="256"
     inkscape:cy="256.29837"
     inkscape:window-width="1920"
     inkscape:window-height="1017"
     inkscape:window-x="-8"
     inkscape:window-y="-8"
     inkscape:window-maximized="1"
     inkscape:current-layer="svg4" />
  <!--! Font Awesome Pro 6.1.2 by @fontawesome - https://fontawesome.com License - https://fontawesome.com/license (Commercial License) Copyright 2022 Fonticons, Inc. -->
  <path
     d="M256 0C114.6 0 0 114.6 0 256s114.6 256 256 256s256-114.6 256-256S397.4 0 256 0zM256 128c17.67 0 32 14.33 32 32c0 17.67-14.33 32-32 32S224 177.7 224 160C224 142.3 238.3 128 256 128zM296 384h-80C202.8 384 192 373.3 192 360s10.75-24 24-24h16v-64H224c-13.25 0-24-10.75-24-24S210.8 224 224 224h32c13.25 0 24 10.75 24 24v88h16c13.25 0 24 10.75 24 24S309.3 384 296 384z"
     id="path2" />
  <path
     style="fill:#ffffff;stroke:none;stroke-width:2.98368;stroke-linecap:square;stop-color:#000000"
     d="m 249.4359,190.91827 c -11.56398,-2.49737 -21.44889,-12.15509 -24.14409,-23.58919 -3.89548,-16.5261 5.7911,-32.92739 22.313,-37.78032 4.20888,-1.23626 12.5815,-1.23626 16.79038,0 13.72544,4.03153 23.25928,16.57547 23.22303,30.5552 -0.0215,8.2748 -3.37472,16.09228 -9.52218,22.19907 -4.55408,4.52395 -9.77059,7.37384 -15.83031,8.64844 -5.07668,1.06783 -7.76375,1.06088 -12.82983,-0.0332 z"
     id="path880" />
  <path
     style="fill:#ffffff;stroke:none;stroke-width:2.98368;stroke-linecap:square;stop-color:#000000"
     d="m 212.98522,383.41429 c -12.77834,-1.64619 -22.5024,-14.54761 -20.31681,-26.95537 1.25453,-7.12214 5.15588,-13.0072 10.90044,-16.44298 4.97342,-2.97457 9.01276,-3.75487 19.43764,-3.75487 h 9.12405 V 304.0373 271.81352 h -4.74452 c -2.60949,0 -6.16753,-0.29772 -7.90676,-0.6616 -7.20022,-1.50644 -13.91879,-6.86482 -17.12758,-13.66008 -1.36181,-2.88391 -1.54982,-4.04213 -1.54982,-9.54778 0,-5.72272 0.15198,-6.57604 1.75356,-9.84616 3.4058,-6.954 10.42097,-12.19902 17.96928,-13.43509 4.84637,-0.79361 34.98389,-0.7474 39.39368,0.0604 9.43079,1.72757 17.26245,9.41452 19.28013,18.92387 0.46269,2.18067 0.67095,17.04527 0.67095,47.88811 v 44.72587 h 9.12405 c 6.28644,0 10.23016,0.28624 12.68065,0.92037 12.05071,3.11846 19.95549,15.23761 17.57007,26.9374 -2.09932,10.29657 -10.36153,17.98552 -20.769,19.32799 -4.75487,0.61333 -80.70089,0.58443 -85.49001,-0.0325 z"
     id="path919" />
</svg>
