<?xml version="1.0" encoding="UTF-8" standalone="no"?>
<svg
   viewBox="0 0 448 512"
   version="1.1"
   id="svg4"
   sodipodi:docname="clover-solid.svg"
   inkscape:version="1.1.1 (3bf5ae0d25, 2021-09-20)"
   xmlns:inkscape="http://www.inkscape.org/namespaces/inkscape"
   xmlns:sodipodi="http://sodipodi.sourceforge.net/DTD/sodipodi-0.dtd"
   xmlns="http://www.w3.org/2000/svg"
   xmlns:svg="http://www.w3.org/2000/svg">
  <defs
     id="defs8" />
  <sodipodi:namedview
     id="namedview6"
     pagecolor="#ffffff"
     bordercolor="#999999"
     borderopacity="1"
     inkscape:pageshadow="0"
     inkscape:pageopacity="0"
     inkscape:pagecheckerboard="0"
     showgrid="false"
     inkscape:zoom="1.6757812"
     inkscape:cx="223.77623"
     inkscape:cy="259.28206"
     inkscape:window-width="1920"
     inkscape:window-height="1017"
     inkscape:window-x="-8"
     inkscape:window-y="-8"
     inkscape:window-maximized="1"
     inkscape:current-layer="svg4" />
  <!--! Font Awesome Pro 6.1.2 by @fontawesome - https://fontawesome.com License - https://fontawesome.com/license (Commercial License) Copyright 2022 Fonticons, Inc. -->
  <path
     style="color:#000000;fill:#ffffff;stroke-width:5;-inkscape-stroke:none"
     d="m 216.6,49.94 1.2,1.24 c 3.4,3.42 9,3.42 12.4,0 l 1.2,-1.24 C 242.9,38.45 258.5,32 274.7,32 308.6,32 336,59.42 336,93.25 v 4.87 c 0,11.98 -3.3,23.78 -9.4,33.98 l -18.8,31.3 c -1.1,1.8 -1.1,3.1 -1,4.2 0.2,1.2 0.9,2.5 2,3.6 1.1,1.1 2.4,0.9 3.6,2 1.1,0.1 2.4,0 4.2,-1 l 31.3,-18.8 c 10.2,-6.1 22,-9.4 34,-9.4 h 4.8 c 33.9,0 61.3,27.4 61.3,61.3 0,16.2 -6.5,31.8 -17.9,43.3 l -1.3,1.2 c -3.4,3.4 -3.4,9 0,12.4 l 1.3,1.2 c 11.4,11.5 17.9,27.1 17.9,43.3 0,33.9 -27.4,61.3 -61.3,61.3 h -4.8 c -12,0 -23.8,-3.3 -34,-9.4 l -31.3,-18.8 c -1.8,-1.1 -3.1,-1.1 -4.2,-1 -1.2,0.2 -2.5,0.9 -3.6,2 -1.1,1.1 -1.8,2.4 -2,3.6 -0.1,1.1 -0.1,2.4 1,4.2 l 18.8,31.3 c 6.1,10.2 9.4,22 9.4,34 v 4.8 c 0,33.9 -27.4,61.3 -61.3,61.3 -16.2,0 -31.8,-6.5 -43.3,-17.9 l -1.2,-1.3 c -3.4,-3.4 -9,-3.4 -12.4,0 l -1.2,1.3 C 205.1,473.5 189.5,480 173.3,480 139.4,480 112,452.6 112,418.7 v -4.8 c 0,-12 3.3,-23.8 9.4,-34 l 18.8,-31.3 c 1,-1.8 1.1,-3.1 1,-4.2 -1.1,-1.2 -0.9,-2.5 -2,-3.6 -1.1,-1.1 -2.4,-1.8 -3.6,-2 -1.1,-0.1 -2.4,-0.1 -4.2,1 l -31.3,18.8 c -10.24,6.1 -22,9.4 -33.98,9.4 H 61.25 C 27.42,368 0,340.6 0,306.7 0,290.5 6.454,274.9 17.94,263.4 l 1.24,-1.2 c 3.42,-3.4 3.42,-9 0,-12.4 l -1.24,-1.2 C 6.454,237.1 0,221.5 0,205.3 0,171.4 27.42,144 61.25,144 h 4.87 c 11.98,0 23.74,3.3 33.98,9.4 l 31.3,18.8 c 1.8,1 3.1,1.1 4.2,1 1.2,-1.1 2.5,-0.9 3.6,-2 1.1,-1.1 0.9,-2.4 2,-3.6 0.1,-1.1 0,-2.4 -1,-4.2 L 121.4,132.1 C 115.3,121.9 112,110.1 112,98.12 V 93.25 C 112,59.42 139.4,32 173.3,32 c 16.2,0 31.8,6.45 43.3,17.94 z"
     id="path823" />
  <path
     style="color:#000000;fill:#b80000;stroke-width:0.986827;-inkscape-stroke:none"
     d="m 173.96864,32.483683 c -34.78372,0 -62.96033,28.193794 -62.96033,62.910222 v 4.804995 c 0,12.27523 3.37676,24.35058 9.62542,34.79915 l 0.002,0.002 18.51457,30.82484 c 0.66669,1.20263 0.71348,1.78599 0.67651,2.41504 -0.28829,0.53444 -0.71499,1.15196 -0.83841,1.48794 -0.2183,0.59424 -0.27004,0.69793 -0.41632,0.8442 -0.14628,0.14629 -0.24997,0.19803 -0.8442,0.41633 -0.33599,0.12342 -0.95351,0.55011 -1.48795,0.8384 -0.62905,0.037 -1.21241,-0.01 -2.41503,-0.6765 l -30.82678,-18.5165 -0.004,-0.002 c -10.482443,-6.24445 -22.520017,-9.62349 -34.795243,-9.62349 h -4.805 c -34.716428,0 -62.91022175,28.1766 -62.91022175,62.96033 0,16.64183 6.62944275,32.6619 18.42591075,44.47275 l 0.01349,0.0135 1.218114,1.17764 c 2.411773,2.39982 2.411773,6.33514 0,8.73496 -6.58e-4,6.5e-4 -0.0013,9.9e-4 -0.002,0.002 l -1.216188,1.17572 -0.01349,0.0135 C 7.113128,273.36946 0.48368525,289.38953 0.48368525,306.03136 c 0,34.78373 28.19379375,62.96033 62.91022175,62.96033 h 4.805 c 12.275226,0 24.3128,-3.37904 34.795293,-9.62349 l 0.004,-0.002 30.90002,-18.56082 0.008,-0.004 c 1.24289,-0.75954 1.69043,-0.71341 2.4902,-0.63796 0.55055,0.10073 1.42041,0.50874 2.17603,1.26437 0.14629,0.14627 0.19803,0.24996 0.41633,0.8442 0.12342,0.33598 0.55011,0.9535 0.8384,1.48795 0.037,0.62904 -0.01,1.2124 -0.67651,2.41503 l -18.51457,30.82484 -0.002,0.002 c -6.2489,10.44865 -9.62566,22.52429 -9.62566,34.8185 v 4.73561 c 0,34.78275 28.17758,62.96034 62.96033,62.96034 16.6465,0 32.65732,-6.6746 44.46504,-18.37966 l 0.0386,-0.0386 1.15451,-1.25088 c 9.9e-4,-9.9e-4 0.003,-8.8e-4 0.004,-0.002 2.39671,-2.39327 6.34209,-2.39327 8.7388,0 l 0.004,0.002 1.15451,1.25088 0.0386,0.0386 c 11.80773,11.70506 27.81854,18.37966 44.46504,18.37966 34.78275,0 62.96033,-28.17759 62.96033,-62.96034 v -4.73561 c 0,-12.29421 -3.37676,-24.36985 -9.62542,-34.81842 l -0.002,-0.002 -18.5589,-30.89809 -0.004,-0.008 c -0.75954,-1.24288 -0.71341,-1.69042 -0.63797,-2.49019 0.10074,-0.55055 0.50875,-1.42041 1.26438,-2.17603 0.75562,-0.75562 1.62548,-1.16364 2.17603,-1.26437 0.79977,-0.0754 1.24731,-0.12158 2.49019,0.63796 l 0.008,0.004 30.89809,18.5589 0.002,0.002 c 10.44857,6.24866 22.52421,9.62542 34.81842,9.62542 h 4.73561 c 34.78275,0 62.96033,-28.17758 62.96033,-62.96033 0,-16.6465 -6.6746,-32.65731 -18.37965,-44.46504 l -0.0386,-0.0386 -1.25089,-1.15451 c -9.8e-4,-9.8e-4 -8.7e-4,-0.003 -0.002,-0.004 -2.39327,-2.39672 -2.39327,-6.34209 0,-8.73881 9.9e-4,-9.9e-4 8.8e-4,-0.003 0.002,-0.004 l 1.25089,-1.15451 0.0386,-0.0386 c 11.70473,-11.8074 18.37933,-27.81821 18.37933,-44.46471 0,-34.78275 -28.17758,-62.96033 -62.96033,-62.96033 h -4.73562 c -12.29421,0 -24.36985,3.37676 -34.81841,9.62542 l -0.002,0.002 -30.82484,18.51458 c -1.20263,0.66669 -1.78599,0.71348 -2.41503,0.6765 -0.53445,-0.28829 -1.15197,-0.71498 -1.48795,-0.8384 -0.59424,-0.2183 -0.69792,-0.27004 -0.8442,-0.41633 -0.75563,-0.75562 -1.16364,-1.62548 -1.26437,-2.17603 -0.0754,-0.79977 -0.12158,-1.24731 0.63796,-2.4902 l 0.004,-0.008 18.5589,-30.89809 0.002,-0.002 c 6.24856,-10.44839 9.62532,-22.52374 9.62532,-34.79897 v -4.804995 c 0,-34.716428 -28.1766,-62.910222 -62.96033,-62.910222 -16.64141,0 -32.66166,6.625099 -44.47275,18.425911 l -0.0154,0.01349 -1.17572,1.218114 c -2.39981,2.411773 -6.33514,2.411773 -8.73496,0 -6.5e-4,-6.58e-4 -9.8e-4,-0.0013 -0.002,-0.002 l -1.17379,-1.216187 -0.0154,-0.01349 C 206.63031,39.108782 190.61006,32.483683 173.96864,32.483683 Z m 0,4.934135 c 15.33175,0 30.09825,6.10584 40.98416,16.98229 l 1.168,1.204623 0.0115,0.01349 c 4.31013,4.335486 11.42513,4.335486 15.73527,0 l 0.0115,-0.01349 1.16801,-1.204623 c 10.88595,-10.87645 25.65244,-16.98229 40.98419,-16.98229 32.12308,0 58.0262,25.923866 58.0262,57.976087 v 4.804995 c 0,11.36768 -3.13464,22.58086 -8.92385,32.26269 l -18.54347,30.87111 c -8.6e-4,9.9e-4 -9.9e-4,0.002 -0.002,0.004 -1.35866,2.22579 -1.45016,4.39187 -1.33568,5.65112 l 0.008,0.0925 0.0154,0.0906 c 0.30333,1.81996 1.26098,3.48712 2.66366,4.88981 0.93924,0.93922 2.0182,1.33347 2.63283,1.55925 0.61463,0.22579 0.78639,0.297 0.99647,0.48957 l 0.61291,0.56279 0.83071,0.0752 c 1.40773,0.12798 3.41025,-0.0897 5.56631,-1.28749 l 0.0366,-0.0192 30.9193,-18.57239 0.004,-0.002 c 9.68163,-5.78927 20.89359,-8.92391 32.28175,-8.92391 h 4.73562 c 32.12405,0 58.02619,25.90215 58.02619,58.0262 0,15.32073 -6.15116,30.09032 -16.93795,40.97838 l -1.25089,1.15451 -0.0347,0.0366 c -4.31296,4.31296 -4.31296,11.41074 0,15.7237 l 0.0347,0.0366 1.25089,1.15451 c 10.78679,10.88808 16.93795,25.65767 16.93795,40.9784 0,32.12405 -25.90214,58.0262 -58.02619,58.0262 h -4.73562 c -11.38816,0 -22.60012,-3.13464 -32.28196,-8.92385 l -0.004,-0.002 -30.86725,-18.54156 -0.004,-0.002 c -2.22579,-1.35866 -4.39188,-1.45016 -5.65113,-1.33568 l -0.0925,0.008 -0.0906,0.0154 c -1.81996,0.30333 -3.48712,1.26098 -4.8898,2.66366 -1.40269,1.40269 -2.36033,3.06984 -2.66367,4.88981 l -0.0154,0.0906 -0.008,0.0925 c -0.11449,1.25925 -0.023,3.42533 1.33568,5.65112 8.5e-4,9.9e-4 9.8e-4,0.002 0.002,0.004 l 18.54348,30.8711 c 5.78921,9.68184 8.92384,20.89381 8.92384,32.28197 v 4.73561 c 0,32.12405 -25.90214,58.0262 -58.02619,58.0262 -15.32073,0 -30.09032,-6.15116 -40.97838,-16.93796 l -1.15451,-1.25088 -0.0366,-0.0347 c -4.31297,-4.31295 -11.41074,-4.31295 -15.72371,0 l -0.0366,0.0347 -1.15451,1.25088 c -10.88782,10.78668 -25.65741,16.93784 -40.97814,16.93784 -32.12405,0 -58.0262,-25.90214 -58.0262,-58.0262 v -4.73561 c 0,-11.38816 3.13464,-22.60013 8.92385,-32.28196 l 0.002,-0.004 18.57239,-30.91929 0.0192,-0.0366 c 1.19781,-2.15606 1.41547,-4.15858 1.28749,-5.56631 l -0.0752,-0.83071 -0.5628,-0.61291 c -0.19257,-0.21008 -0.26378,-0.38183 -0.48957,-0.99647 -0.22577,-0.61463 -0.62003,-1.69359 -1.55925,-2.63282 -1.40269,-1.40269 -3.06984,-2.36034 -4.88981,-2.66367 l -0.0906,-0.0154 -0.0925,-0.008 c -1.25926,-0.11448 -3.42534,-0.023 -5.65113,1.33568 -9.9e-4,8.6e-4 -0.002,9.9e-4 -0.004,0.002 l -30.87104,18.54368 c -9.725972,5.792 -20.896461,8.92385 -32.262693,8.92385 h -4.805 c -32.052221,0 -57.9760867,-25.90313 -57.9760867,-58.0262 0,-15.3277 6.1065177,-30.09296 16.9745807,-40.97838 l 1.212332,-1.17379 0.01349,-0.0115 c 4.335486,-4.31014 4.335486,-11.42514 0,-15.73528 l -0.01349,-0.0115 -1.204623,-1.16608 -0.0077,-0.008 C 11.524338,236.0616 5.4178203,221.29634 5.4178203,205.96864 c 0,-32.12307 25.9238657,-58.0262 57.9760867,-58.0262 h 4.805 c 11.369125,0 22.54269,3.13287 32.270403,8.9277 l 30.91544,18.57046 0.0366,0.0192 c 2.15606,1.19781 4.15859,1.41547 5.56632,1.28749 l 0.83071,-0.0752 0.6129,-0.56279 c 0.21008,-0.19257 0.38184,-0.26378 0.99647,-0.48957 0.61463,-0.22577 1.6936,-0.62003 2.63283,-1.55925 0.93922,-0.93924 1.33348,-2.0182 1.55925,-2.63283 0.22579,-0.61463 0.297,-0.78639 0.48957,-0.99647 l 0.5628,-0.6129 0.0752,-0.83072 c 0.12798,-1.40772 -0.0897,-3.41025 -1.28749,-5.56631 l -0.0192,-0.0366 -18.57239,-30.9193 -0.002,-0.004 c -5.78922,-9.68169 -8.92386,-20.89487 -8.92386,-32.26255 v -4.804995 c 0,-32.052221 25.90313,-57.976087 58.0262,-57.976087 z"
     id="path825" />
</svg>
